<svg width="280" height="280" viewBox="0 0 280 280" fill="none" xmlns="http://www.w3.org/2000/svg">
<path d="M0 81.6667C0 36.5634 36.5634 0 81.6667 0H198.333C243.437 0 280 36.5634 280 81.6667V198.333C280 243.437 243.437 280 198.333 280H81.6667C36.5634 280 0 243.437 0 198.333V81.6667Z" fill="url(#paint0_linear_5433_405556)"/>
<path d="M102.372 155.091L102.25 155.218L102.079 155.435C101.908 155.652 101.751 155.877 101.615 156.116L101.422 156.46L101.187 156.916C101.044 157.231 100.951 157.582 100.887 157.956L100.858 158.083L100.794 158.734V159.4H100.787C100.787 159.647 100.816 159.894 100.837 160.133L100.908 160.702L101.023 161.3L101.165 161.839L101.38 162.257L101.658 162.669L101.844 162.863C101.965 162.991 102.1 163.11 102.25 163.23L102.486 163.402L103.071 163.701C103.285 163.791 103.528 163.866 103.792 163.933C104.056 164 104.349 164.045 104.663 164.083C104.984 164.12 105.327 164.135 105.705 164.135L106.654 164.105L107.511 164.015L108.282 163.873L108.974 163.686C109.26 163.596 109.517 163.484 109.759 163.372L110.116 163.192L110.573 162.893C110.716 162.789 110.837 162.684 110.951 162.572C111.066 162.459 111.18 162.355 111.294 162.235C111.408 162.115 111.523 161.996 111.63 161.868C111.737 161.741 111.844 161.599 111.951 161.45L112.236 160.963L112.486 160.395L112.679 159.722C112.786 159.235 112.85 158.667 112.85 157.994L112.829 157.38L112.757 156.812L112.636 156.281L112.472 155.787L112.265 155.331L112.022 154.919L111.744 154.545L111.43 154.209L111.087 153.909L110.716 153.648L110.323 153.431L109.909 153.251L109.474 153.109L109.017 153.012L108.546 152.952L108.068 152.929C107.946 152.929 107.832 152.929 107.718 152.929H107.682H107.647H107.611H107.575H107.54H107.504H107.468H107.432H107.354H107.34H107.325H107.318H107.304H107.283H107.275H107.268H107.247H107.225H107.204H107.183H107.154H107.126H107.097H107.068H107.047H107.026H107.004H106.983H106.961H106.94H106.919H106.897H106.89H106.883H106.876H106.869H106.861H106.854H106.847H106.84H106.826H106.811H106.797H106.783H106.769H106.754H106.74H106.726C106.726 152.929 106.719 152.929 106.712 152.929H106.704H106.697H106.683H106.669H106.654H106.64H106.626H106.612H106.597H106.576C106.576 152.929 106.569 152.929 106.562 152.929H106.54L106.519 152.937H106.497L106.476 152.944H106.455L106.433 152.952H106.412L106.39 152.959H106.369L106.348 152.967H106.326L106.305 152.974H106.283L106.262 152.982H106.24L106.219 152.989H106.212H106.205H106.198H106.191H106.183H106.176H106.169H106.148L106.126 152.997H106.105L106.083 153.004H106.062L106.041 153.012H106.019L105.998 153.019H105.991H105.983H105.976H105.969H105.962H105.955H105.948H105.926L105.905 153.034H105.884L105.862 153.049H105.841L105.819 153.064H105.798L105.769 153.079C105.755 153.079 105.748 153.079 105.734 153.087H105.705L105.677 153.109H105.648L105.619 153.131L105.591 153.146L105.562 153.161L105.534 153.176L105.505 153.191H105.498H105.491H105.484L105.477 153.199H105.47L105.462 153.206H105.455L105.448 153.214H105.427L105.405 153.236H105.384L105.363 153.259H105.341L105.32 153.281H105.298L105.277 153.303H105.263L105.248 153.311H105.234L105.22 153.318H105.205L105.191 153.326H105.177C105.177 153.326 105.17 153.333 105.163 153.333H105.141L105.113 153.356L105.084 153.371L105.056 153.386L105.027 153.401L104.998 153.416L104.97 153.431L104.941 153.446H104.927L104.913 153.453H104.899L104.884 153.461H104.87L104.856 153.468H104.841L104.827 153.476L104.791 153.49L104.756 153.505L104.72 153.528L104.684 153.55L104.642 153.573L104.599 153.595L104.556 153.618L104.513 153.64C103.642 154.081 103.057 154.523 102.614 154.987L102.372 155.091Z" fill="#151515"/>
<path d="M174.257 214.672C175.313 212.077 176.32 209.466 177.241 206.818C173.386 207.521 167.883 208.995 162.758 210.251C168.989 200.938 178.961 180.554 185.092 170.067C183.401 169.783 178.847 169.461 176.548 169.94C173.693 173.553 168.333 183.105 164.942 188.409C160.11 194.849 157.854 201.941 151.316 204.963C145.599 203.848 151.066 196.921 153.679 189.92C156.191 184.399 158.233 180.218 159.917 177.151C162.815 167.09 152.708 168.264 146.141 174.78C137.925 180.375 130.117 201.185 120.966 203.676C117.119 200.662 121.137 193.57 122.965 190.286L134.485 168.735H144.257L146.298 164.157H136.655L145.67 148.307L133.521 148.875C128.339 158.255 116.869 178.4 115.177 183.427C110.659 188.73 96.8758 200.976 93.2497 202.577C92.5788 202.577 92.1862 202.023 92.5502 201.312C95.5267 192.59 100.095 182.784 106.255 171.915H94.2134C93.9278 172.58 93.5567 173.231 93.1427 173.889C93.1427 173.867 93.1498 173.837 93.157 173.815C88.4674 180.405 80.2375 190.114 67.9961 198.088C47.1608 211.665 42.871 195.904 46.6611 181.287C49.6733 169.641 55.3764 153.341 73.2924 132.912C80.9513 124.175 95.1984 116.687 99.5881 122.963C102.286 126.831 100.366 137.228 92.536 141.612C89.5666 143.272 91.5938 145.157 92.4218 144.768C95.8194 143.205 101.059 137.37 102.607 131.917C105.762 120.846 97.9464 110.636 77.6607 122.036C54.2058 135.209 41.8645 152.615 33.6417 172.745C29.98 181.706 25.5046 201.395 34.1485 208.307C42.7853 215.218 55.1337 211.957 68.0033 203.699C76.0761 198.515 82.9284 191.595 88.1176 185.207C84.1562 193.735 74.0204 210.326 85.4695 211.897C93.3854 211.89 105.12 196.899 111.337 191.483C103.564 209.75 113.65 221.666 129.988 201.843C133.293 197.916 143.921 181.258 144.842 180.15C146.748 178.325 148.182 175.842 148.803 177.974C148.803 178.512 146.612 182.567 142.251 190.152C136.933 200.976 133.129 203.826 137.597 210.887C143.279 216.123 151.016 211.59 155.299 206.511C155.299 206.511 151.544 213.042 151.537 213.049C151.202 213.633 148.746 214.156 148.104 214.403C146.783 214.904 145.463 215.398 144.15 215.922C141.43 216.999 138.718 218.158 136.198 219.662C131.451 222.489 127.518 226.775 127.968 232.707C128.032 233.56 128.225 234.301 128.503 234.966C131.401 239.761 135.556 239.791 141.287 238.295C146.141 236.837 149.339 233.62 152.158 228.915C154.3 225.347 156.184 221.584 158.14 217.896C158.332 217.53 159.232 215.256 159.582 215.196C167.026 213.775 170.681 214.313 174.243 214.687L174.257 214.672ZM135.334 235.393C132.658 235.393 131.152 234.121 131.459 231.54C131.823 228.556 133.279 226.753 135.149 225.062C136.997 223.394 139.096 222.04 141.302 220.941L150.317 216.46C144.121 228.728 138.882 235.393 135.334 235.393Z" fill="#151515"/>
<path d="M87.0458 187.714C85.247 190.571 83.7409 194.207 82.2705 197.603C83.8908 193.99 85.7824 190.444 87.0458 187.714Z" fill="#151515"/>
<path d="M152.596 192.434C152.553 192.553 152.503 192.673 152.453 192.793C152.674 192.314 152.881 191.835 153.088 191.349C152.924 191.708 152.76 192.06 152.589 192.434H152.596Z" fill="#151515"/>
<path d="M117.092 89.4511C108.776 83.5716 98.8043 82.5991 88.9825 81.3873C80.7026 80.6692 64.3782 75.6574 61.316 72.1416C57.4687 67.5038 54.7991 61.901 57.8827 56.2458C63.2361 46.4241 76.1343 43.5891 86.2773 45.893C93.3937 47.5088 98.3903 49.8651 104.086 54.7872C109.654 59.6045 112.816 64.2124 114.779 71.1766C117.484 67.3766 120.197 63.5691 122.909 59.7691C123.109 59.4848 123.466 59.1482 123.323 58.834C115.792 42.7214 91.6521 38.667 75.4633 41.8237C72.7153 42.3623 70.0029 43.0804 67.3547 43.9856C58.2467 47.1049 49.8597 54.6226 47.7183 64.2872C47.5185 65.1774 47.3686 66.0825 47.2687 66.9951C46.8832 92.4133 78.2971 90.9921 96.1418 95.0165C99.1469 95.6897 102.073 96.737 104.829 98.248C110.318 101.248 118.483 108.773 111.952 120.667C109.975 123.711 107.427 125.641 104.607 126.83C104.643 128.319 104.557 129.793 104.329 131.266C122.338 121.968 130.882 100.343 117.092 89.4436V89.4511Z" fill="#151515"/>
<path d="M98.1038 132.179C98.118 132.142 98.118 132.149 98.1252 132.134C98.1323 132.104 98.1395 132.089 98.1609 132.007C98.2251 131.805 98.2965 131.603 98.3536 131.401C98.4678 131.035 98.5677 130.668 98.6534 130.294C98.7961 129.666 98.8747 128.963 98.9032 128.259C94.3421 128.678 89.4883 127.773 85.1128 126.329C84.6774 127.1 84.1135 127.796 83.4568 128.334C82.5788 129.045 80.2019 131.244 79.8593 131.685C78.7601 133.107 77.5323 134.393 76.2832 135.643C82.5717 137.041 89.4312 136.78 97.2329 134.191C97.5399 133.533 97.8397 132.867 98.1109 132.179H98.1038Z" fill="#151515"/>
<path d="M69.4822 123.681C71.074 122.828 72.6657 121.991 74.2218 121.078C73.7793 120.779 73.3296 120.494 72.9013 120.18C69.9748 118.048 67.4479 115.341 64.6784 112.962C58.9753 108.062 52.5726 103.94 45.606 101.891C42.9935 101.12 40.3097 100.739 37.6115 100.664C36.3339 102.572 35.356 104.778 34.4352 106.903C33.5715 108.907 32.7078 110.912 31.8584 112.924C36.7693 113.089 42.658 113.964 48.1899 118.123C52.6225 122.327 57.0409 126.112 61.6306 129.157C64.0646 126.972 66.6628 125.192 69.4822 123.674V123.681Z" fill="#151515"/>
<path d="M246.807 102.415C244.131 98.0984 242.803 95.6299 242.803 95.009C242.803 94.1638 243.431 92.9519 244.687 91.3885C245.937 89.8177 246.329 89.3464 246.486 88.8752C246.822 87.8653 246.008 87.0874 244.866 87.0874C244.031 87.0874 243.039 88.0822 241.904 90.072C240.39 92.5929 238.221 95.2335 235.408 97.9937C232.824 100.365 230.298 102.706 227.785 105.003C227.521 105.25 227.285 105.467 227.043 105.698C226.943 105.788 226.836 105.885 226.736 105.983C226.165 106.521 225.644 107.022 225.187 107.479C222.068 110.374 213.959 117.742 210.94 120.741C207.606 124.055 204.023 126.696 202.431 126.696C202.353 126.696 202.167 126.658 201.86 126.576C201.068 126.322 200.711 125.275 200.626 123.831C200.633 120.614 201.325 117.712 202.696 115.101L221.754 78.9263H231.525L233.574 74.281H223.916L232.931 58.4825L220.783 59.0585L207.085 84.3196C203.988 90.0271 201.511 94.5976 199.669 98.091C196.928 100.769 193.616 103.843 185.236 108.399C186.914 103.739 187.806 100.425 187.82 98.8165C187.827 93.9917 185.272 91.583 180.119 91.583C173.602 91.583 166.892 95.9516 159.976 104.674C159.576 105.19 159.248 105.683 158.869 106.185C153.923 111.795 148.341 118.744 144.615 122.335C141.203 125.649 139.776 125.791 138.191 125.963C138.12 125.963 137.927 125.955 137.627 125.903C136.792 125.686 136.321 124.781 136.157 123.292C136.071 121.385 136.449 118.497 137.263 114.63C138.22 110.456 139.19 107.853 140.161 106.821C144.665 102.265 148.02 98.824 150.268 96.4976C163.273 82.6291 172.859 68.8652 179.034 55.1986C180.525 51.9596 181.075 49.8726 180.989 46.9029C180.918 43.9407 178.62 42.6616 174.623 43.0954C166.407 43.9856 157.028 52.9695 146.492 70.0172C138.048 83.7137 131.938 97.3654 128.198 110.995C126.142 118.467 125.314 124.541 125.707 129.277C125.857 131.177 126.613 132.77 127.977 134.042C129.34 135.321 130.96 135.852 132.845 135.65C135.85 135.321 139.504 134.206 146.028 125.978C147.777 123.771 149.804 121.213 151.746 118.752C150.639 121.781 150.054 124.676 150.047 127.421C150.026 132.927 153.023 135.68 158.998 135.68C163.316 135.68 168.198 132.583 173.68 126.382C177.628 121.863 180.904 117.173 183.787 111.668C188.284 110.778 193.366 106.985 196.507 104.232C196.193 104.846 195.957 105.347 195.808 105.684C191.775 114.645 189.74 122.305 189.726 128.656C189.726 130.563 190.347 132.239 191.589 133.645C192.838 135.066 194.409 135.769 196.3 135.769C199.334 135.769 203.866 132.186 211.018 124.646C213.852 121.647 220.976 114.959 224.923 111.01C226.108 109.977 227.906 108.354 230.362 106.087C234.887 101.913 237.514 99.5571 238.278 99.026V102.706C238.249 108.975 237.435 114.795 235.837 120.151C234.373 124.901 232.517 128.154 230.24 129.912C228.799 131.064 227.207 131.64 225.465 131.64C223.724 131.64 222.061 130.877 220.704 129.336C221.233 129.493 221.875 129.576 222.639 129.576C223.838 129.576 224.887 129.06 225.758 128.027C226.629 126.988 227.071 125.858 227.071 124.646C227.078 121.033 225.387 119.238 221.982 119.238C220.155 119.238 218.663 119.851 217.485 121.086C216.307 122.305 215.722 123.831 215.708 125.671C215.708 128.738 217.143 131.191 220.005 133.024C222.51 134.632 225.372 135.433 228.642 135.433H229.541C234.537 135.201 239.277 132.83 243.76 128.312C248.456 123.651 250.826 118.595 250.833 113.156C250.84 110.321 249.505 106.738 246.829 102.407L246.807 102.415ZM155.093 70.8251C163.709 55.3557 170.547 47.3517 175.715 46.7907C176.271 46.7309 177.613 46.6635 177.706 48.8852C177.264 54.6974 172.296 64.1152 162.795 77.146C154.194 88.9948 146.935 97.3579 141.025 102.235C143.116 94.3957 147.806 83.9232 155.093 70.8251ZM165.258 126.262C163.744 126.262 162.895 125.499 162.988 123.973C163.338 118.684 165.236 114.914 165.336 114.712C167.884 109.282 170.618 105.983 171.903 104.442C173.63 108.122 176.585 110.194 180.747 110.643C175.343 121.071 170.19 126.262 165.265 126.262H165.258ZM183.937 104.105C183.431 106.439 182.738 107.718 181.889 107.898C181.66 107.98 181.468 108.01 181.318 108.01C179.805 108.01 178.263 107.367 176.714 106.058C175.172 104.771 174.408 103.387 174.408 101.928C174.408 100.47 175.293 99.0634 177.028 97.6795C178.777 96.3031 180.361 95.6075 181.81 95.6075C183.78 95.6075 184.751 96.8791 184.751 99.4075C184.744 100.552 184.38 102.093 183.937 104.113V104.105Z" fill="#151515"/>
<path d="M248.94 200.564C248.341 199.607 248.155 199.181 247.862 198.874C244.786 195.635 241.688 192.418 238.605 189.194C242.209 185.821 245.721 182.342 248.869 178.355C243.965 178.221 239.561 178.079 235.164 177.981C232.709 177.929 224.721 185.364 224.643 187.855C224.629 188.312 225.164 188.783 225.499 189.247C228.84 187.16 232.259 187.676 235.699 188.97C233.551 191.124 228.269 191.334 225.528 189.404C225.192 189.883 224.636 190.361 224.643 190.833C224.671 192.411 232.53 200.953 234.036 200.946C238.883 200.909 243.73 200.714 248.947 200.572L248.94 200.564Z" fill="#151515"/>
<path d="M225.497 189.239C225.461 189.261 225.426 189.284 225.383 189.306C225.426 189.336 225.476 189.366 225.518 189.396C225.533 189.374 225.547 189.359 225.561 189.336C225.54 189.306 225.511 189.269 225.49 189.239H225.497Z" fill="#151515"/>
<path d="M214.371 189.561C214.407 189.538 214.442 189.516 214.485 189.493C214.442 189.463 214.392 189.433 214.349 189.403C214.335 189.426 214.321 189.441 214.307 189.463C214.328 189.493 214.357 189.531 214.378 189.561H214.371Z" fill="#151515"/>
<path d="M190.995 200.452C195.898 200.587 200.302 200.729 204.699 200.826C207.155 200.878 215.142 193.443 215.221 190.952C215.235 190.496 214.699 190.024 214.364 189.561C211.023 191.648 207.604 191.132 204.164 189.837C206.312 187.683 211.595 187.474 214.335 189.404C214.671 188.925 215.228 188.446 215.221 187.975C215.192 186.396 207.333 177.854 205.827 177.861C200.98 177.899 196.134 178.093 190.916 178.235C191.516 179.193 191.701 179.619 191.994 179.926C195.07 183.165 198.168 186.382 201.252 189.606C197.647 192.979 194.135 196.458 190.987 200.445L190.995 200.452Z" fill="#151515"/>
<path d="M230.58 159.452C229.667 160.08 229.26 160.275 228.967 160.582C225.876 163.806 222.807 167.052 219.731 170.284C216.512 166.506 213.192 162.826 209.388 159.527C209.259 164.666 209.124 169.281 209.031 173.889C208.981 176.462 216.076 184.833 218.453 184.915C218.888 184.93 219.338 184.369 219.781 184.018C217.789 180.517 218.282 176.934 219.517 173.328C221.572 175.58 221.772 181.115 219.931 183.988C220.387 184.339 220.844 184.923 221.294 184.915C222.8 184.885 230.952 176.649 230.944 175.071C230.909 169.992 230.723 164.913 230.587 159.445L230.58 159.452Z" fill="#151515"/>
<path d="M219.78 184.025C219.801 184.063 219.823 184.1 219.844 184.145C219.872 184.1 219.9 184.048 219.929 184.003C219.907 183.988 219.893 183.973 219.872 183.958C219.844 183.98 219.809 184.01 219.78 184.033V184.025Z" fill="#151515"/>
<path d="M220.079 195.687C220.058 195.65 220.037 195.612 220.016 195.568C219.988 195.612 219.959 195.665 219.931 195.71C219.952 195.725 219.966 195.74 219.988 195.755C220.016 195.732 220.051 195.702 220.079 195.68V195.687Z" fill="#151515"/>
<path d="M230.473 220.185C230.602 215.046 230.738 210.431 230.83 205.823C230.88 203.249 223.785 194.879 221.408 194.797C220.973 194.782 220.523 195.343 220.081 195.694C222.072 199.195 221.58 202.778 220.345 206.384C218.289 204.132 218.089 198.597 219.931 195.724C219.474 195.373 219.017 194.789 218.567 194.797C217.061 194.827 208.91 203.062 208.917 204.641C208.953 209.72 209.138 214.799 209.274 220.267C210.188 219.639 210.594 219.444 210.887 219.138C213.978 215.914 217.047 212.667 220.124 209.436C223.343 213.213 226.662 216.894 230.466 220.192L230.473 220.185Z" fill="#151515"/>
<path d="M206.335 203.968L206.691 211.119L194.143 216.774L199.739 203.833L206.335 203.968Z" fill="#151515"/>
<path d="M233.913 174.966L233.549 167.815L246.105 162.153L240.502 175.101L233.913 174.966Z" fill="#151515"/>
<path d="M233.957 203.915L240.78 203.541L246.184 216.692L233.828 210.827L233.957 203.915Z" fill="#151515"/>
<path d="M206.284 175.011L199.46 175.392L194.063 162.234L206.412 168.107L206.284 175.011Z" fill="#151515"/>
<defs>
<linearGradient id="paint0_linear_5433_405556" x1="227.145" y1="-6.728e-07" x2="-31.1989" y2="322.408" gradientUnits="userSpaceOnUse">
<stop stop-color="#FFD100"/>
<stop offset="0.653047" stop-color="#D78336"/>
<stop offset="1" stop-color="#E0EC52"/>
</linearGradient>
</defs>
</svg>
