<svg width="51" height="44" fill="none" xmlns="http://www.w3.org/2000/svg"><path d="m16.843 25.373-.028.028-.04.049a1.18 1.18 0 0 0-.106.15l-.045.077-.054.1a.915.915 0 0 0-.069.231l-.006.028-.015.144v.148h-.002c0 .055.007.11.012.162l.016.126.026.133.033.12.05.092.064.091.042.043c.028.028.06.055.094.081l.054.039.135.066c.049.02.105.036.166.051a2.15 2.15 0 0 0 .44.045l.218-.007.197-.02.178-.031.159-.041c.066-.02.125-.045.18-.07l.083-.04.105-.066a.769.769 0 0 0 .087-.071l.079-.075a1.506 1.506 0 0 0 .151-.174l.065-.108.058-.126.044-.149c.025-.108.04-.233.04-.383l-.005-.135-.017-.127-.028-.117-.037-.11-.048-.1-.056-.092-.064-.083-.072-.074-.079-.067-.085-.058-.09-.048-.096-.04-.1-.03-.105-.022-.109-.014-.11-.005H17.802l-.005.002h-.005l-.005.002h-.005l-.005.001h-.005l-.005.002h-.005l-.005.002h-.004l-.005.001h-.005l-.005.002h-.005l-.005.002h-.017l-.004.001h-.005l-.005.002h-.005l-.005.002h-.005l-.005.001h-.016l-.005.004h-.005l-.005.003h-.005l-.005.003h-.005l-.006.004-.009.001h-.006l-.007.005h-.006l-.007.005-.007.003-.006.004-.007.003-.006.003h-.005l-.002.002h-.002l-.001.002h-.002l-.001.001h-.005l-.005.005h-.005l-.005.005h-.005l-.005.005h-.005l-.005.005h-.003l-.003.002H17.5l-.003.002h-.003l-.004.001h-.003s-.001.002-.003.002h-.005l-.007.005-.006.003-.007.003-.006.004-.007.003-.006.003-.007.004h-.003l-.004.001h-.003l-.003.002h-.003l-.004.002h-.003l-.003.001-.009.004-.008.003-.008.005-.008.005-.01.005-.01.005-.01.005-.01.005c-.2.098-.335.195-.436.298l-.056.023Z" fill="url(#a)"/><path d="M33.382 38.573c.243-.575.474-1.153.686-1.74-.886.156-2.153.483-3.332.76 1.434-2.062 3.728-6.578 5.139-8.902-.39-.063-1.437-.134-1.966-.028-.657.8-1.89 2.917-2.67 4.092-1.112 1.427-1.631 2.998-3.135 3.667-1.316-.247-.058-1.781.543-3.332.578-1.224 1.048-2.15 1.436-2.83.666-2.229-1.66-1.968-3.17-.525-1.89 1.24-3.687 5.85-5.792 6.402-.885-.668.04-2.239.46-2.966l2.65-4.775h2.248l.47-1.014H24.73l2.075-3.512-2.795.126c-1.193 2.078-3.832 6.541-4.221 7.655-1.04 1.175-4.21 3.888-5.045 4.243-.154 0-.245-.123-.161-.28.685-1.933 1.736-4.105 3.153-6.513h-2.77a3.17 3.17 0 0 1-.247.437.06.06 0 0 1 .004-.017 21.478 21.478 0 0 1-5.79 5.378c-4.793 3.008-5.78-.484-4.908-3.722.693-2.58 2.005-6.192 6.127-10.717 1.762-1.936 5.04-3.595 6.05-2.205.621.857.18 3.16-1.622 4.132-.683.368-.217.785-.027.7.782-.347 1.988-1.64 2.344-2.848.726-2.453-1.072-4.715-5.74-2.19-5.396 2.92-8.236 6.776-10.127 11.235-.843 1.986-1.873 6.348.116 7.879 1.987 1.531 4.828.809 7.79-1.02 1.857-1.15 3.433-2.682 4.627-4.098-.911 1.89-3.243 5.565-.61 5.913 1.822-.001 4.522-3.322 5.953-4.522-1.789 4.047.532 6.687 4.29 2.295.761-.87 3.206-4.56 3.418-4.806.439-.404.769-.954.912-.482 0 .12-.505 1.017-1.508 2.698-1.223 2.398-2.099 3.03-1.07 4.594 1.306 1.16 3.087.156 4.072-.97l-.865 1.449c-.078.129-.643.245-.79.3-.304.11-.608.22-.91.336-.626.239-1.25.496-1.83.829-1.092.626-1.997 1.576-1.893 2.89.015.189.059.353.123.5.667 1.063 1.623 1.07 2.941.738 1.117-.323 1.853-1.036 2.502-2.078.492-.79.926-1.624 1.376-2.441.044-.082.251-.585.331-.599 1.713-.315 2.554-.195 3.374-.112l.003-.004Zm-8.955 4.59c-.616 0-.963-.28-.892-.853.084-.66.419-1.06.849-1.435.425-.37.908-.67 1.416-.913l2.074-.993c-1.426 2.718-2.631 4.195-3.447 4.195Z" fill="url(#b)"/><path d="M16.813 25.402c-.156.187-.295.404-.325.66.176-.263.522-.44.84-.551.106-.035.214-.056.324-.061.867-.075 1.482.412 1.329 1.41.314-.37.356-.993.136-1.438a1.008 1.008 0 0 0-.642-.493 2.199 2.199 0 0 0-.57-.04c-.06.004-.121.01-.18.022-.314.066-.71.272-.91.489l-.002.002ZM10.911 18.605c4.741-2.559 6.546-.205 5.689 2.342 1.394-2.81-.414-5.613-5.443-2.9-5.342 2.89-8.18 6.698-10.07 11.103 1.89-4.168 4.708-7.777 9.824-10.543v-.002ZM26.471 24.432l.334-.563-2.796.126c-1.192 2.076-3.828 6.536-4.218 7.653.998-2.078 2.908-5.239 3.972-7.095l2.71-.12h-.002ZM26.69 27.94l.26-.56h-2.137l-.33.56h2.207ZM14.967 29.097a3.17 3.17 0 0 1-.246.438l.003-.017C10.94 35.13-.006 41.323 5.083 28.075c-5.609 13.61 5.176 8.12 9.393 2.003a.061.061 0 0 1-.003.017c.095-.146.18-.29.246-.438h2.695c.107-.185.212-.37.322-.558h-2.77l.001-.002Z" fill="#F8E82F"/><path d="M13.317 32.6c-.414.634-.76 1.44-1.099 2.192.373-.8.808-1.586 1.099-2.191ZM34.068 36.833c-.849.15-2.047.454-3.186.726-.136.212-.269.416-.392.593 1.225-.29 2.337-.583 3.37-.762.07-.185.143-.37.21-.557h-.002ZM27.28 31l-.006-.02c-.5.926-2.302 3.89-2.649 4.81.375-.767 2.745-4.759 2.656-4.79Z" fill="#F8E82F"/><path d="M26.911 29.734c-1.89 1.24-3.686 5.85-5.792 6.402-.5-.378-.422-1.043-.184-1.683-.386.773-.712 1.75-.062 2.241 2.105-.552 3.902-5.162 5.792-6.402 1.458-1.394 3.679-1.684 3.227.307 1.214-2.315-1.325-2.552-2.98-.865ZM28.398 33.646c-.01.027-.022.053-.033.08.05-.106.098-.212.146-.32l-.115.24h.002ZM33.907 28.663c-.656.8-1.89 2.917-2.67 4.092-1.112 1.427-1.63 2.998-3.135 3.667-.672-.126-.672-.588-.43-1.218-.437.905-.675 1.616.184 1.777 2.16-1.09 4.204-5.884 5.807-7.758.496-.1 1.452-.043 1.888.017.112-.192.222-.378.325-.547-.389-.063-1.436-.134-1.965-.028l-.004-.002ZM14.583 35.612c.2-.565.435-1.152.698-1.759-.131.474-1.353 2.6-.785 2.597.954-.568 4.518-3.162 5.293-4.8-.573.636-5.364 5.206-5.206 3.962ZM29.892 30.599c-.36.672-.933 1.763-1.38 2.807.547-1.243 1.065-1.969 1.38-2.807Z" fill="#F8E82F"/><path d="M17.414 29.657c-.855 1.494-1.568 2.892-2.133 4.196a45.76 45.76 0 0 1 2.209-4.196h-.076ZM27.67 35.203c.22-.458.491-.965.696-1.476-.252.534-.53 1.045-.696 1.476ZM24.813 27.38l1.744-2.951-.086.003-1.742 2.948h.084ZM35.55 29.238c-1.42 2.428-3.485 6.443-4.814 8.356l.146-.035c1.434-2.24 3.457-6.186 4.747-8.31-.023-.003-.05-.008-.08-.011Z" fill="#F8E82F"/><path d="M20.23 10.831c-1.914-1.303-4.208-1.518-6.468-1.787-1.905-.159-5.66-1.269-6.365-2.048-.886-1.027-1.5-2.269-.79-3.522C7.838 1.298 10.806.67 13.139 1.181c1.638.358 2.787.88 4.098 1.97 1.28 1.068 2.008 2.088 2.46 3.631l1.87-2.527c.046-.063.129-.138.096-.207C19.93.478 14.376-.42 10.652.279c-.633.12-1.257.279-1.866.48-2.096.69-4.025 2.356-4.518 4.497-.046.197-.08.398-.103.6-.09 5.631 7.138 5.316 11.244 6.208.691.15 1.365.381 1.999.716 1.263.664 3.141 2.332 1.639 4.967a3.642 3.642 0 0 1-1.69 1.365c.008.33-.012.657-.064.983 4.143-2.06 6.109-6.851 2.936-9.266v.002Z" fill="url(#c)"/><path d="m15.86 20.297.006-.01.008-.028c.015-.045.031-.09.044-.134a2.446 2.446 0 0 0 .126-.696c-1.049.093-2.165-.108-3.172-.428-.1.17-.23.325-.381.444-.202.158-.75.645-.828.743-.253.315-.535.6-.823.877 1.447.31 3.025.251 4.82-.322.071-.146.14-.293.202-.446h-.001Z" fill="url(#d)"/><path d="M9.275 18.415c.366-.19.733-.375 1.09-.577-.101-.067-.205-.13-.303-.2-.673-.471-1.255-1.071-1.892-1.598-1.312-1.086-2.785-1.999-4.388-2.453a7.448 7.448 0 0 0-1.84-.272c-.293.423-.518.912-.73 1.382-.199.445-.398.889-.593 1.334 1.13.037 2.485.23 3.757 1.152 1.02.932 2.037 1.77 3.093 2.445a9.222 9.222 0 0 1 1.806-1.215v.002Z" fill="url(#e)"/><path d="M50.074 13.703c-.616-.956-.921-1.503-.921-1.64 0-.188.144-.456.433-.803.288-.348.378-.452.414-.557.077-.223-.11-.396-.373-.396-.192 0-.42.22-.681.662-.349.558-.848 1.143-1.495 1.755-.594.525-1.176 1.044-1.754 1.552-.06.055-.115.103-.17.155a17.195 17.195 0 0 0-.427.394c-.718.641-2.584 2.274-3.279 2.938-.766.734-1.59 1.32-1.957 1.32a.731.731 0 0 1-.131-.027c-.183-.056-.265-.289-.285-.608a3.99 3.99 0 0 1 .477-1.934l4.385-8.015h2.248l.471-1.029h-2.222l2.074-3.5-2.795.128-3.151 5.596a312.274 312.274 0 0 0-1.707 3.051c-.63.593-1.392 1.275-3.32 2.284.386-1.033.591-1.767.594-2.123.002-1.07-.586-1.603-1.772-1.603-1.5 0-3.043.968-4.634 2.9-.092.115-.168.224-.255.335-1.138 1.243-2.422 2.783-3.28 3.578-.784.734-1.113.766-1.477.804a.832.832 0 0 1-.13-.013c-.192-.048-.3-.249-.338-.579-.02-.422.067-1.062.254-1.919.22-.924.444-1.501.667-1.73a292.722 292.722 0 0 0 2.325-2.287c2.993-3.072 5.198-6.122 6.619-9.15.343-.717.47-1.18.45-1.837-.017-.657-.546-.94-1.465-.844-1.89.197-4.048 2.188-6.472 5.964-1.943 3.035-3.349 6.06-4.21 9.079-.473 1.655-.663 3.001-.573 4.05.035.421.209.774.523 1.056.313.283.686.4 1.12.356.691-.073 1.532-.32 3.033-2.143.402-.489.869-1.055 1.315-1.6-.254.67-.389 1.312-.39 1.92-.006 1.22.684 1.83 2.059 1.83.993 0 2.117-.686 3.378-2.06a16.445 16.445 0 0 0 2.325-3.26c1.035-.197 2.204-1.037 2.927-1.647a6.635 6.635 0 0 0-.161.321c-.928 1.986-1.396 3.683-1.4 5.09 0 .422.144.793.43 1.105.287.315.648.47 1.083.47.698 0 1.741-.793 3.387-2.464.651-.664 2.29-2.146 3.199-3.02.272-.23.686-.59 1.251-1.091 1.041-.925 1.646-1.447 1.821-1.565v.816c-.006 1.388-.194 2.678-.561 3.864-.337 1.053-.764 1.774-1.288 2.163a1.76 1.76 0 0 1-1.099.383c-.4 0-.783-.17-1.095-.51.122.034.27.052.445.052a.927.927 0 0 0 .718-.343c.2-.23.302-.48.302-.749.002-.8-.388-1.198-1.17-1.198-.421 0-.765.136-1.036.41-.27.27-.405.608-.408 1.015 0 .68.33 1.223.988 1.63.577.356 1.235.533 1.987.533h.207c1.15-.051 2.24-.577 3.272-1.578 1.08-1.032 1.625-2.152 1.627-3.357.002-.628-.305-1.422-.921-2.382l-.005.002ZM28.973 6.704c1.982-3.427 3.555-5.2 4.744-5.324.128-.014.437-.028.458.464-.102 1.287-1.245 3.374-3.43 6.26-1.98 2.626-3.65 4.479-5.01 5.56.482-1.738 1.56-4.058 3.238-6.96Zm2.338 12.282c-.348 0-.544-.169-.522-.507.08-1.171.517-2.007.54-2.052a10.034 10.034 0 0 1 1.511-2.275c.397.816 1.077 1.275 2.035 1.374-1.243 2.31-2.43 3.46-3.562 3.46h-.002Zm4.298-4.909c-.117.518-.276.801-.471.84a.405.405 0 0 1-.132.026c-.348 0-.703-.143-1.06-.433-.354-.285-.53-.592-.53-.915 0-.323.204-.635.603-.941.403-.305.767-.46 1.1-.46.454 0 .677.283.677.843-.002.253-.085.595-.187 1.042v-.002Z" fill="url(#f)"/><path d="M8.53 1.32C12.6-.074 19.173.457 21.364 4.532c.082-.154.305-.308.299-.482-2.899-5.388-14.523-5.584-17.178.523C5.3 3.04 6.863 1.87 8.53 1.32H8.53ZM10.374 17.833c-.105-.065-.212-.128-.312-.194-1.941-1.598-3.843-3.424-6.282-4.05a7.358 7.358 0 0 0-1.84-.27 4.95 4.95 0 0 0-.327.54c3.141.026 5.777 2.254 8.152 4.304.205-.106.409-.216.61-.33h-.001ZM15.96 19.982l.027-.102c.031-.133.048-.284.056-.433-1.025.104-2.127-.084-3.175-.438-.1.168-.226.319-.377.436-.023.019-.05.034-.072.052 1.164.41 2.412.63 3.54.485ZM49.827 14.263c.928 1.483 1.145 2.299.698 3.676 1.377-2.232-.617-4.186-1.37-5.877-.538.86-.101.766.672 2.201ZM45.525 14.43c-.922.86-2.787 2.458-3.705 3.335-1.76 1.735-2.904 1.883-2.145-.69-1.066 2.476-.414 3.567 1.899 1.248 1.745-1.605 3.869-3.467 5.63-5.041.452-.403.799-.845 1.16-1.347.187-.259.375-.519.591-.751.107-.114.486-.406.638-.237.223.25-.436 1.01-.556 1.198.244-.212.487-.427.702-.673.172-.198.332-.437.341-.71.005-.15-.042-.31-.156-.397-.497-.38-.93.55-1.146.865a8.474 8.474 0 0 1-.979 1.147c-.724.73-1.525 1.356-2.273 2.053h-.001ZM44.086 4.1l-3.151 5.596c-1.756 3.097-1.546 3.488-5.027 5.335 2.394-5.491-3.507-4.187-5.814-.828-.189.23-.447.526-.749.854-.175.292-.353.583-.535.872a23.87 23.87 0 0 0 1.036-1.165c2.308-3.36 8.208-4.664 5.814.827 3.481-1.846 3.273-2.238 5.027-5.335l3.151-5.597 2.708-.124.334-.563-2.796.127h.002ZM46.771 8.03l.256-.558h-2.136l-.332.558h2.212ZM33.4 1.05c1.398-.186 1.647.693 1.366 1.732.495-1.145.549-2.554-1.164-2.314C29.675.742 24.472 10 23.1 14.474c1.424-4.33 6.56-13.235 10.302-13.426l-.002.002ZM44.89 7.472l1.745-2.94-.087.003-1.74 2.937h.083Z" fill="#F8E82F"/><path d="M35.323 14.79c.37-.658.94-2.598-.204-2.597-.532-.038-1.684.698-1.698 1.35 1.35-1.41 2.669-.902 1.904 1.247h-.002ZM49.152 12.062c.232-.37.718-.71.595-.996-.25.275-.63.802-.595.996ZM34.218 1.691c-.023-.494-.335-.477-.465-.464-2.35-.021-7.227 9.372-7.927 11.91.849-2.583 5.508-11.4 7.728-11.325.53-.117.52.64.339 1.13.187-.477.297-.896.325-1.25ZM20.213 10.801c-1.925-1.31-4.23-1.524-6.502-1.795-1.723-.144-3.93-.628-5.915-1.811-.567-.338-1.053-.844-1.291-1.496-.371-1.013-.07-1.784-.115-1.727-.779.958-.332 2.583.662 3.54.708.78 4.483 1.895 6.398 2.056 2.273.27 4.577.486 6.502 1.795 1.69 1.286 1.928 3.245 1.16 5.11 1.065-2.024.961-4.256-.9-5.672ZM45.418 18.507c.112-1.508-2.204-1.34-2.381-.06.602-.876 2.384-.63 2.143.682a.98.98 0 0 0 .238-.622Z" fill="#F8E82F"/><path d="M50.565 35.448c-.138-.212-.18-.307-.248-.375-.708-.717-1.42-1.43-2.13-2.144.83-.748 1.637-1.518 2.361-2.402-1.128-.03-2.141-.06-3.153-.082-.565-.012-2.402 1.635-2.42 2.187-.004.101.12.206.197.308.768-.462 1.555-.348 2.346-.061-.494.477-1.71.524-2.34.096-.077.106-.205.212-.203.317.006.35 1.814 2.242 2.16 2.24 1.116-.008 2.23-.051 3.431-.083l-.001-.001Z" fill="#FAC101"/><path d="m45.172 32.939-.027.015c.01.006.022.013.031.02l.01-.014-.016-.021h.002ZM42.611 33.01a.38.38 0 0 1 .026-.015l-.03-.02-.01.013.016.022h-.002Z" fill="#FAC101"/><path d="M37.233 35.423c1.128.03 2.142.061 3.153.083.565.011 2.403-1.636 2.42-2.188.004-.1-.12-.205-.196-.308-.769.462-1.555.348-2.347.061.494-.477 1.71-.523 2.34-.096.077-.106.206-.212.204-.316-.007-.35-1.815-2.243-2.161-2.241-1.115.008-2.23.051-3.431.083.138.212.18.306.248.374.708.718 1.42 1.43 2.13 2.145-.83.747-1.637 1.518-2.362 2.401l.002.002ZM46.341 26.34c-.21.139-.304.182-.371.25-.711.714-1.417 1.433-2.125 2.15-.74-.838-1.505-1.653-2.38-2.384-.03 1.139-.06 2.161-.082 3.182-.012.57 1.62 2.425 2.168 2.443.1.003.203-.121.305-.199-.458-.776-.345-1.57-.06-2.368.472.499.518 1.725.095 2.361.105.078.21.208.313.206.347-.007 2.222-1.831 2.22-2.181-.008-1.125-.05-2.25-.081-3.462l-.002.002Z" fill="#FAC101"/><path d="m43.856 31.784.015.026.02-.031-.014-.01-.02.016v-.001ZM43.925 34.367l-.015-.026-.02.031.014.01.02-.016v.001Z" fill="#FAC101"/><path d="M46.316 39.795c.03-1.139.061-2.161.082-3.182.012-.57-1.62-2.425-2.167-2.443-.1-.003-.204.121-.306.199.458.776.345 1.57.06 2.368-.472-.499-.518-1.725-.094-2.361-.105-.078-.21-.208-.314-.206-.346.007-2.222 1.831-2.22 2.18.008 1.126.05 2.252.082 3.463.21-.14.304-.182.371-.25.711-.715 1.417-1.434 2.125-2.15.74.837 1.504 1.653 2.38 2.383l.001-.001Z" fill="#FAC101"/><path d="m40.762 36.202.082 1.584-2.887 1.253 1.288-2.867 1.517.03ZM47.108 29.777l-.084-1.585 2.889-1.254-1.29 2.869-1.515-.03ZM47.118 36.19l1.57-.083 1.243 2.914-2.843-1.3.03-1.53ZM40.75 29.787l-1.57.084-1.24-2.915 2.84 1.301-.03 1.53Z" fill="#2BAAE2"/><defs><linearGradient id="a" x1="17.863" y1="27.392" x2="17.863" y2="24.906" gradientUnits="userSpaceOnUse"><stop stop-color="#CEA23F"/><stop offset="1" stop-color="#FCC000"/></linearGradient><linearGradient id="b" x1="17.938" y1="44.18" x2="17.938" y2="17.125" gradientUnits="userSpaceOnUse"><stop stop-color="#CEA23F"/><stop offset="1" stop-color="#FCC000"/></linearGradient><linearGradient id="c" x1="12.982" y1="31.172" x2="12.982" y2=".271" gradientUnits="userSpaceOnUse"><stop stop-color="#CEA23F"/><stop offset="1" stop-color="#FCC000"/></linearGradient><linearGradient id="d" x1="13.443" y1="31.172" x2="13.443" y2=".271" gradientUnits="userSpaceOnUse"><stop stop-color="#CEA23F"/><stop offset="1" stop-color="#FCC000"/></linearGradient><linearGradient id="e" x1="5.493" y1="31.172" x2="5.493" y2=".271" gradientUnits="userSpaceOnUse"><stop stop-color="#CEA23F"/><stop offset="1" stop-color="#FCC000"/></linearGradient><linearGradient id="f" x1="36.589" y1="21.233" x2="36.589" y2=".684" gradientUnits="userSpaceOnUse"><stop stop-color="#CEA23F"/><stop offset="1" stop-color="#FCC000"/></linearGradient></defs></svg>