<svg viewBox="0 0 120 24" fill="none" xmlns="http://www.w3.org/2000/svg">
<mask id="mask0_4441_42165" style="mask-type:alpha" maskUnits="userSpaceOnUse" x="1" y="0" width="118" height="24">
<path d="M118.5 0H1.5V24H118.5V0Z" fill="#C4C4C4"/>
</mask>
<path fill-rule="evenodd" clip-rule="evenodd" d="M9.16765 13.0744V15.9904H11.204C11.9798 16.0444 12.6585 15.4503 12.7071 14.5863C12.7071 14.5863 12.7071 14.5863 12.7071 14.5324C12.7071 13.6143 12.0282 13.0203 11.01 13.0203L9.16765 13.0744ZM9.16765 8.80832V11.4003H11.0585C11.7373 11.4544 12.3676 10.9143 12.4162 10.1582C12.4162 10.1043 12.4162 10.0503 12.4162 10.0503C12.4162 9.3482 11.7858 8.80832 10.9131 8.80832H9.16765ZM6.45238 7.0802H10.1373C11.7858 7.0802 12.3676 7.13426 12.8525 7.35014C13.7737 7.83632 14.3071 8.80832 14.3071 9.94232C14.3071 11.0223 14.0162 11.5623 13.0464 12.1024C14.0646 12.4803 14.7434 13.5604 14.6465 14.7483C14.6465 16.5304 13.3858 17.7184 11.5433 17.7184H6.45238V15.9904H7.17966V8.80832H6.45238V7.0802Z" fill="white"/>
<path fill-rule="evenodd" clip-rule="evenodd" d="M20.8547 12.7051C20.8547 11.7871 20.176 11.0851 19.4001 11.0851H19.3518C18.5275 11.0851 17.8487 11.7871 17.7032 12.651L20.8547 12.7051ZM22.6972 15.081C22.3578 16.8632 21.0487 17.9431 19.3033 17.9431C17.2669 17.9431 15.7638 16.1611 15.7638 13.6771C15.7638 11.193 17.2669 9.41101 19.3033 9.41101C20.4183 9.41101 21.4851 10.005 22.1154 11.0851C22.6003 12.003 22.8912 13.0291 22.8427 14.109H17.6063C17.8001 16.2152 19.0123 16.3231 19.3518 16.3231C20.0305 16.3772 20.6609 15.8371 20.8548 15.1351L22.6972 15.081Z" fill="white"/>
<path fill-rule="evenodd" clip-rule="evenodd" d="M28.7561 12.4377H32.1016V17.7297H31.0349V16.0557C30.841 16.4337 30.5985 16.7577 30.3076 17.0817C29.6774 17.6757 28.9016 17.9998 28.1257 17.9998C25.8954 17.9998 24.15 15.5697 24.15 12.4377C24.15 9.30563 25.8954 6.82157 28.0774 6.82157C29.2894 6.76751 30.3561 7.52363 30.9379 8.65763V6.98357H31.9561V10.3856H30.8895C30.7925 9.89957 30.5985 9.46763 30.3561 9.08957C29.8712 8.38751 29.0955 7.95557 28.3197 7.90151C27.1561 7.90151 25.4107 9.03551 25.4107 12.3296C25.4107 14.9217 26.6712 16.8118 28.3197 16.8118C29.6288 16.7577 30.6955 15.6777 30.9379 14.2736C30.9865 14.0036 30.9865 13.6796 30.9865 13.4097H28.7076L28.7561 12.4377Z" fill="white"/>
<path fill-rule="evenodd" clip-rule="evenodd" d="M38.1633 13.5625L37.4846 13.6704C35.2542 13.9944 34.5269 14.4264 34.5269 15.4524C34.5755 16.3706 35.2542 17.0186 36.03 17.0186C37.0966 16.9645 38.0179 16.1004 38.1633 14.9124V13.5625ZM40.2482 17.7745H38.1633V16.3165C37.6784 17.3426 36.7088 17.9365 35.6906 17.9365C34.4784 18.0445 33.4117 16.9645 33.3148 15.6144C33.3148 15.5606 33.3148 15.5065 33.3148 15.4524C33.3148 13.8865 34.5269 13.1304 37.436 12.8064L38.1147 12.7525V11.9425C38.1147 11.0244 37.4846 10.4304 36.4663 10.4304C35.4482 10.4304 34.9148 10.8083 34.7208 11.8884H33.6057C33.7026 11.2404 33.9935 10.6463 34.4299 10.2144C34.9633 9.72839 35.6906 9.51233 36.3693 9.51233C37.8724 9.51233 39.1331 10.2684 39.1331 12.3204V16.8025H40.1513L40.2482 17.7745Z" fill="white"/>
<path fill-rule="evenodd" clip-rule="evenodd" d="M43.3015 11.139C43.6409 10.5991 44.2712 9.46501 45.6289 9.46501C46.5985 9.46501 47.1319 10.005 47.3258 11.139C47.5198 10.7611 47.7136 10.437 48.0047 10.113C48.4411 9.68095 48.9743 9.41101 49.5562 9.41101C50.6713 9.41101 51.3016 10.221 51.3016 11.6251V16.7551H52.3198V17.7271H50.2834V12.0571C50.2834 10.9231 49.944 10.383 49.2167 10.383C47.9562 10.383 47.2773 12.0571 47.2773 12.651V16.7551H48.344V17.7271H46.2107V11.8951C46.2107 10.869 45.8713 10.437 45.144 10.437C44.0289 10.437 43.2046 12.003 43.2046 12.7591V16.8091H44.2712V17.7811H41.1197V16.8091H42.1863V10.545H41.1197V9.57301H43.2531L43.3015 11.139Z" fill="white"/>
<path fill-rule="evenodd" clip-rule="evenodd" d="M55.4706 14.3221C55.4706 15.6722 56.3919 16.7522 57.5555 16.8602C58.8161 16.8602 59.5919 15.6182 59.5919 13.6201C59.5919 11.6222 58.7677 10.4341 57.5555 10.4341C56.4888 10.4341 55.4221 11.7301 55.4221 12.9182L55.4706 14.3221ZM53.4343 6.59998H55.4706V11.2982C55.7616 10.704 56.5858 9.51598 57.8465 9.51598C59.495 9.51598 60.7555 11.4061 60.7555 13.7821C60.7555 15.9962 59.3979 17.8862 57.8465 17.8862C56.5374 17.8862 55.907 16.9142 55.4706 16.2662V17.7782H53.3857V16.8062H54.4039V7.57198H53.4343V6.59998Z" fill="white"/>
<path fill-rule="evenodd" clip-rule="evenodd" d="M61.3795 6.59998H63.4642V16.8062H64.4342V17.7782H61.331V16.8062H62.3977V7.5181H61.3795V6.59998Z" fill="white"/>
<path fill-rule="evenodd" clip-rule="evenodd" d="M70.4929 13.0224C70.4929 12.2665 70.2502 11.5644 69.7655 10.9703C69.4262 10.6463 68.9898 10.4304 68.5534 10.4843C67.6322 10.5384 66.8566 11.2404 66.6139 12.2124C66.5656 12.4824 66.4684 12.7525 66.4684 13.0224H70.4929ZM71.5595 15.5065C71.4629 15.9925 71.2685 16.3706 70.9776 16.7484C70.3957 17.5046 69.5717 17.9365 68.6506 17.9365C66.6622 17.9365 65.2563 16.2086 65.2563 13.7245C65.2563 11.3484 66.6622 9.51233 68.4562 9.51233C70.2502 9.51233 71.705 11.0784 71.705 13.9404H66.4201C66.5173 15.1284 66.7594 15.8305 67.2441 16.3706C67.6322 16.7485 68.117 16.9645 68.6017 16.9645C69.4262 16.9645 69.9592 16.5326 70.3474 15.5605L71.5595 15.5065Z" fill="white"/>
<path fill-rule="evenodd" clip-rule="evenodd" d="M77.3284 9.07826L76.068 13.8303H78.5888L77.3284 9.07826ZM76.1646 7.0802H78.4922L81.159 16.0444H81.8858V17.7724H79.7043L79.0741 15.4503H75.6799L75.0497 17.7724H72.8192V16.0444H73.5466L76.1646 7.0802Z" fill="white"/>
<path fill-rule="evenodd" clip-rule="evenodd" d="M81.7905 9.62781H84.7V11.1937H83.9726L84.9903 15.9999L86.203 9.62781H88.0936L89.3057 15.8919L90.2758 11.1937H89.5484V9.62781H92.4573V11.1937H91.8271L90.2758 17.7279H88.3363L87.1242 12.1119L85.9604 17.7279H84.0209L82.4207 11.1937H81.7905V9.62781Z" fill="white"/>
<path fill-rule="evenodd" clip-rule="evenodd" d="M97.5966 13.9404C95.8998 14.1024 94.7843 14.2644 94.7843 15.3984C94.7843 16.0466 95.2696 16.4785 95.9964 16.4785C96.8692 16.4785 97.5966 15.7226 97.6449 14.7504V13.9404H97.5966ZM99.3423 16.2086H99.9725V17.7745H97.6938V16.8025C97.1602 17.5585 96.3362 17.9365 95.4634 17.9365C94.0086 17.9365 92.8937 16.8566 92.8937 15.3984C92.8937 13.0224 95.3179 12.7525 97.6449 12.5364C97.6449 11.2943 97.2574 10.9164 96.3362 10.9164C95.4151 10.9164 95.0752 11.4024 95.0269 12.1584V12.2124L93.2812 12.1584C93.3784 10.5384 94.5422 9.51233 96.2873 9.51233C98.324 9.51233 99.3906 10.5384 99.3906 12.3744L99.3423 16.2086Z" fill="white"/>
<path fill-rule="evenodd" clip-rule="evenodd" d="M103.409 10.9259C103.894 9.89984 104.428 9.4679 105.252 9.4679C105.543 9.4679 105.785 9.52178 106.076 9.57584V11.466C105.785 11.4119 105.494 11.3578 105.203 11.3578C104.282 11.304 103.506 12.0599 103.458 13.0319V16.164H104.331V17.73H100.936V16.164H101.664V11.1958H100.936V9.6299H103.409V10.9259Z" fill="white"/>
<path fill-rule="evenodd" clip-rule="evenodd" d="M111.506 12.7051C111.506 11.7871 110.828 11.0851 110.051 11.0851H110.003C109.179 11.0851 108.5 11.7871 108.354 12.651L111.506 12.7051ZM113.397 15.081C113.057 16.8632 111.749 17.9431 110.003 17.9431C107.966 17.9431 106.463 16.1611 106.463 13.6771C106.463 11.193 107.966 9.41101 110.003 9.41101C111.118 9.41101 112.184 10.005 112.815 11.0851C113.3 12.003 113.591 13.0291 113.543 14.109H108.306C108.5 16.2152 109.712 16.3231 110.051 16.3231C110.73 16.3772 111.361 15.8371 111.554 15.1351L113.397 15.081Z" fill="white"/>
<defs>
<clipPath id="clip0_4441_42165">
<rect width="117" height="24" fill="white" transform="translate(1.5)"/>
</clipPath>
<clipPath id="clip1_4441_42165">
<rect width="117" height="24" fill="white" transform="translate(1.5)"/>
</clipPath>
</defs>
</svg>
