<svg xmlns="http://www.w3.org/2000/svg" width="106" height="48" viewBox="0 0 106 48" fill="none">
    <g clip-path="url(#clip0_2426_408128)">
        <path d="M90.4461 18.7005C85.2336 19.0234 87.574 25.7898 93.3366 25.4326C98.9736 25.0834 95.9997 18.3565 90.4461 18.7005Z" fill="#F19021"/>
        <path d="M88.2457 14.5213C84.9244 14.5213 81.6776 15.5029 78.9159 17.3421C76.1543 19.1813 74.0019 21.7955 72.7308 24.8539C71.4598 27.9124 71.1272 31.2779 71.7752 34.5247C72.4232 37.7716 74.0226 40.754 76.3711 43.0949C78.7197 45.4358 81.712 47.0299 84.9696 47.6757C88.2271 48.3216 91.6037 47.9901 94.6722 46.7233C97.7408 45.4564 100.364 43.311 102.209 40.5585C104.054 37.8059 105.039 34.5698 105.039 31.2593C105.039 26.8201 103.27 22.5627 100.12 19.4237C96.971 16.2847 92.6996 14.5213 88.2457 14.5213ZM88.2457 46.2432C85.2731 46.2437 82.3671 45.3656 79.8952 43.7199C77.4233 42.0742 75.4966 39.7348 74.3586 36.9977C73.2207 34.2605 72.9227 31.2484 73.5023 28.3424C74.0819 25.4365 75.5131 22.767 77.6149 20.6718C79.7166 18.5766 82.3946 17.1496 85.3101 16.5714C88.2255 15.9932 91.2476 16.2897 93.994 17.4234C96.7403 18.5571 99.0878 20.4771 100.739 22.9406C102.391 25.4041 103.272 28.3004 103.272 31.2633C103.272 35.2357 101.689 39.0455 98.8714 41.8547C96.0534 44.6639 92.2313 46.2425 88.2457 46.2432ZM87.7393 2.83624C83.7526 5.83987 84.4455 10.4461 84.4455 10.4461C84.4455 10.4461 81.9397 3.9631 78.6855 0C78.2465 5.10181 79.8505 11.8616 79.8505 11.8616C79.8505 11.8616 77.8128 7.67051 72.8198 7.43591C76.9612 9.80824 78.5678 14.0824 78.9354 15.229C81.4034 13.7106 84.2258 12.8593 87.1244 12.7591C86.7978 11.6916 85.6369 7.19341 87.7393 2.83624Z" fill="#F19021"/>
        <path d="M1.59534 32.9002V36.4033H0.132874V27.3779H3.21119C4.25493 27.3779 5.03949 27.6253 5.56489 28.1199C6.09028 28.6146 6.35474 29.292 6.35827 30.1522C6.35827 31.0054 6.08896 31.6767 5.55034 32.1661C5.01173 32.6555 4.23377 32.9002 3.21648 32.9002H1.59534ZM4.86539 30.1522C4.86539 29.6409 4.72214 29.2507 4.43564 28.9819C4.14914 28.713 3.68986 28.579 3.0578 28.5799H1.59534V31.7114H3.0578C4.26198 31.7114 4.86451 31.1917 4.86539 30.1522ZM12.3946 36.4033L10.1374 32.7987H9.09808V36.4033H7.63561V27.3779H10.8303C11.8643 27.3779 12.6489 27.6292 13.184 28.1318C13.7191 28.6344 13.9862 29.2995 13.9853 30.1272C13.9853 30.8301 13.7865 31.4096 13.3889 31.8656C12.9914 32.3216 12.4184 32.6111 11.67 32.7341L14.0501 36.4033H12.3946ZM9.09808 31.7628H10.7113C11.8925 31.7628 12.4827 31.2431 12.4818 30.2036C12.4818 29.7098 12.3386 29.3241 12.0521 29.0465C11.7652 28.7697 11.3195 28.6313 10.7113 28.6313H9.09808V31.7628ZM20.7066 34.4474H16.8838L16.1909 36.4033H14.6266L17.9615 27.5189H19.6421L22.9637 36.4033H21.3981L20.7066 34.4474ZM20.2953 33.3232L18.7945 29.1058L17.2937 33.3232H20.2953ZM30.3514 28.0936C31.0693 28.622 31.5743 29.3885 31.7755 30.255H30.2364C30.0446 29.7749 29.7053 29.3675 29.2671 29.0913C28.7895 28.7932 28.2344 28.642 27.6711 28.6563C27.1376 28.6477 26.6118 28.7844 26.1505 29.0517C25.6992 29.3183 25.3343 29.7085 25.0992 30.1759C24.8378 30.7105 24.7103 31.3002 24.7277 31.8946C24.7105 32.5094 24.8425 33.1193 25.1125 33.6725C25.3519 34.1489 25.7291 34.5428 26.1954 34.8033C26.6929 35.0727 27.2519 35.2089 27.8179 35.1987C28.5284 35.211 29.2181 34.9592 29.7524 34.4923C30.2902 34.0283 30.615 33.3913 30.727 32.5812H27.4014V31.5071H31.9541V32.9002C31.858 33.5494 31.6147 34.1683 31.2427 34.7097C30.8652 35.2562 30.359 35.702 29.7683 36.0079C29.1201 36.3396 28.3996 36.5063 27.6711 36.4929C26.8539 36.5096 26.0472 36.3066 25.3359 35.9051C24.6688 35.5219 24.126 34.9561 23.7717 34.2748C23.4088 33.532 23.2202 32.7167 23.2202 31.8906C23.2202 31.0645 23.4088 30.2492 23.7717 29.5064C24.1245 28.8279 24.6651 28.2644 25.3293 27.8827C26.0396 27.4854 26.8436 27.2847 27.6579 27.3015C28.736 27.3015 29.6339 27.5655 30.3514 28.0936ZM42.2799 27.5189V36.4033H40.8042V29.7437L38.2271 36.4033H36.9444L34.3527 29.7437V36.4033H32.8916V27.5189H34.6608L37.6109 34.6135L40.5093 27.5189H42.2799ZM49.4362 34.4474H45.62L44.9272 36.4033H43.3576L46.6924 27.5189H48.3718L51.6947 36.4033H50.1291L49.4362 34.4474ZM49.0263 33.3232L47.5255 29.1058L46.0247 33.3232H49.0263ZM57.9531 27.3779V28.5535H55.4262V36.4033H53.9505V28.5535H51.4382V27.3779H57.9531ZM60.1971 27.3779V36.4033H58.736V27.3779H60.1971ZM68.4707 28.1318C69.2127 28.7047 69.7372 29.5119 69.9583 30.4211H68.4059C68.2077 29.8944 67.8518 29.4412 67.3864 29.1229C66.8787 28.7913 66.2808 28.6238 65.6741 28.6432C65.1652 28.6351 64.6646 28.7723 64.2314 29.0386C63.7983 29.3149 63.4515 29.7066 63.2305 30.1694C62.9899 30.7087 62.8656 31.2924 62.8656 31.8827C62.8656 32.473 62.9899 33.0567 63.2305 33.596C63.4512 34.0594 63.798 34.4517 64.2314 34.7282C64.6646 34.9945 65.1652 35.1317 65.6741 35.1236C66.2806 35.1434 66.8786 34.9763 67.3864 34.6451C67.8493 34.3299 68.2049 33.8817 68.4059 33.3601H69.9583C69.7385 34.2677 69.2135 35.0728 68.4707 35.6415C67.7355 36.2003 66.8121 36.4797 65.7005 36.4797C64.9047 36.4948 64.1198 36.2934 63.4301 35.8972C62.7753 35.5136 62.2454 34.9498 61.9042 34.2735C61.5489 33.5285 61.3646 32.7141 61.3646 31.8893C61.3646 31.0645 61.5489 30.25 61.9042 29.5051C62.2467 28.8279 62.7761 28.2623 63.4301 27.8748C64.1186 27.4752 64.904 27.2718 65.7005 27.287C66.8112 27.2879 67.7347 27.5695 68.4707 28.1318ZM76.8568 32.9002V36.4033H75.3956V27.3779H78.474C79.5159 27.3779 80.3005 27.6253 80.8276 28.1199C81.3548 28.6146 81.6193 29.292 81.621 30.1522C81.621 31.0054 81.3517 31.6767 80.8131 32.1661C80.2745 32.6555 79.4965 32.9002 78.4792 32.9002H76.8568ZM80.1321 30.1522C80.1321 29.6409 79.9889 29.2507 79.7024 28.9819C79.4159 28.713 78.9561 28.579 78.3232 28.5799H76.8568V31.7114H78.3192C79.5278 31.7114 80.1321 31.1917 80.1321 30.1522ZM84.1294 35.2659H87.2593V36.4033H82.667V27.3779H84.1294V35.2659ZM93.9541 34.4474H90.1327L89.4398 36.4033H87.8742L91.2104 27.5189H92.8897L96.2126 36.4033H94.647L93.9541 34.4474ZM93.5442 33.3232L92.0434 29.1058L90.5426 33.3232H93.5442ZM102.082 27.3779L99.0688 33.1176V36.4033H97.5971V33.1176L94.5703 27.3779H96.2642L98.3428 31.5585L100.42 27.3779H102.082Z" fill="white"/>
    </g>
    <defs>
        <clipPath id="clip0_2426_408128">
            <rect width="105" height="48" fill="white" transform="translate(0.132874)"/>
        </clipPath>
    </defs>
</svg>
